<?xml version="1.0" encoding="UTF-8" standalone="no"?>
<!-- Created with Inkscape (http://www.inkscape.org/) -->

<svg
   xmlns:dc="http://purl.org/dc/elements/1.1/"
   xmlns:cc="http://creativecommons.org/ns#"
   xmlns:rdf="http://www.w3.org/1999/02/22-rdf-syntax-ns#"
   xmlns:svg="http://www.w3.org/2000/svg"
   xmlns="http://www.w3.org/2000/svg"
   xmlns:sodipodi="http://sodipodi.sourceforge.net/DTD/sodipodi-0.dtd"
   xmlns:inkscape="http://www.inkscape.org/namespaces/inkscape"
   width="800px"
   height="600px"
   id="svg5093"
   version="1.1"
   inkscape:version="0.47 r22583"
   sodipodi:docname="New document 118">
  <defs
     id="defs5095">
    <inkscape:perspective
       sodipodi:type="inkscape:persp3d"
       inkscape:vp_x="0 : 300 : 1"
       inkscape:vp_y="0 : 1000 : 0"
       inkscape:vp_z="800 : 300 : 1"
       inkscape:persp3d-origin="400 : 200 : 1"
       id="perspective5101" />
    <inkscape:perspective
       id="perspective5055"
       inkscape:persp3d-origin="0.5 : 0.33333333 : 1"
       inkscape:vp_z="1 : 0.5 : 1"
       inkscape:vp_y="0 : 1000 : 0"
       inkscape:vp_x="0 : 0.5 : 1"
       sodipodi:type="inkscape:persp3d" />
  </defs>
  <sodipodi:namedview
     id="base"
     pagecolor="#ffffff"
     bordercolor="#666666"
     borderopacity="1.0"
     inkscape:pageopacity="0.0"
     inkscape:pageshadow="2"
     inkscape:zoom="0.6"
     inkscape:cx="400"
     inkscape:cy="601.55945"
     inkscape:current-layer="layer1"
     inkscape:document-units="px"
     showgrid="false"
     inkscape:window-width="1400"
     inkscape:window-height="1022"
     inkscape:window-x="0"
     inkscape:window-y="1"
     inkscape:window-maximized="1" />
  <metadata
     id="metadata5098">
    <rdf:RDF>
      <cc:Work
         rdf:about="">
        <dc:format>image/svg+xml</dc:format>
        <dc:type
           rdf:resource="http://purl.org/dc/dcmitype/StillImage" />
        <dc:title></dc:title>
      </cc:Work>
    </rdf:RDF>
  </metadata>
  <g
     id="layer1"
     inkscape:label="Layer 1"
     inkscape:groupmode="layer">
    <path
       style="fill:#ac9d93;fill-opacity:1;fill-rule:evenodd;stroke:#000000;stroke-width:5.65052652;stroke-linecap:butt;stroke-linejoin:miter;stroke-miterlimit:4;stroke-opacity:1;stroke-dasharray:none"
       id="path3229"
       d="m 420.35181,230.29271 c 13.3392,-89.81749 -76.84592,-95.86079 -66.69617,-131.613741 10.55657,-37.186068 51.57837,-26.678465 72.92114,-32.014157 21.34273,-5.335691 18.19357,-25.051198 5.33569,-35.571276 -9.78212,-8.00355 -89.76967,-12.331341 -108.49242,46.242663 -26.04413,81.478891 64.02832,74.699691 64.02828,151.177951 0,65.01497 31.12489,1.77856 32.90348,1.77856 z" />
    <path
       style="fill:#ac9d93;fill-opacity:1;fill-rule:nonzero;stroke:#000000;stroke-width:5.65052605;stroke-linecap:round;stroke-linejoin:round;stroke-miterlimit:4;stroke-opacity:1;stroke-dasharray:none"
       id="path2383"
       d="m 218.48475,377.91351 a 174.29928,174.29928 0 0 0 348.59855,0 174.29928,174.29928 0 1 0 -348.59855,0 z" />
    <path
       style="fill:#241f1c;fill-opacity:0.31372549;fill-rule:evenodd;stroke:none"
       id="path3334"
       d="m 345.18739,45.594254 c -4.69032,5.913855 -8.53572,12.908358 -11.16863,21.145329 -26.04412,81.478877 64.00991,74.717457 64.00987,151.195717 0,26.41234 5.17014,31.64358 11.38937,28.56165 -9.59392,13.00155 -21.9841,23.07037 -21.9841,-17.96691 4e-5,-76.47826 -90.05399,-69.71684 -64.00987,-151.195722 4.42186,-13.83366 12.23896,-24.1433 21.76336,-31.740064 z m 96.27968,9.049671 c -1.57742,5.333433 -6.20625,9.839743 -14.87678,12.007366 -15.21166,3.802905 -40.42656,-0.424818 -57.47644,10.285728 14.99605,-23.800765 49.21419,-16.166215 68.07117,-20.880462 1.57077,-0.392685 2.97075,-0.87357 4.28205,-1.412632 z" />
    <path
       style="fill:#241f1c;fill-opacity:0.31372549;fill-rule:nonzero;stroke:none"
       id="path3306"
       d="m 457.97718,216.2578 c 20.28679,8.19683 38.68007,20.10141 54.34219,34.87435 -4.57982,7.79514 -10.52323,14.95784 -18.05521,20.35072 17.37205,22.74067 27.67874,51.1272 27.67874,81.93263 5e-5,74.61434 -60.55685,135.17122 -135.17114,135.17122 -74.61433,0 -135.1712,-60.55692 -135.1712,-135.17122 0,-30.51321 10.16281,-58.63929 27.23732,-81.27046 -5.25938,-3.59804 -9.73033,-8.04274 -13.55248,-12.97855 14.92518,-16.01806 32.79941,-29.25009 52.79711,-38.75908 0.42966,0.50949 0.8328,1.02557 1.23607,1.54507 3.04699,3.92534 5.01989,7.57293 6.13613,10.99203 18.41324,-9.40123 39.23657,-14.70019 61.31705,-14.70019 21.59265,1e-5 42.01394,5.06627 60.12511,14.08217 1.14855,-3.23918 3.05403,-6.6878 5.91538,-10.37401 1.53133,-1.97273 3.28168,-3.87124 5.16493,-5.69468 z" />
    <path
       style="fill:#ac9d93;fill-opacity:1;fill-rule:nonzero;stroke:#000000;stroke-width:5.65052605;stroke-linecap:round;stroke-linejoin:round;stroke-miterlimit:4;stroke-opacity:1;stroke-dasharray:none"
       id="path2385"
       d="m 522.38438,170.85672 c 3.62302,0.0804 6.30011,0.82974 7.63704,2.33967 4.92639,5.56396 0.83356,56.41251 -29.75356,78.31276 17.37201,22.74066 27.67875,51.1272 27.67875,81.93263 0,74.61432 -60.55686,135.17119 -135.17119,135.17119 -74.61433,0 -135.1712,-60.55689 -135.1712,-135.17119 0,-30.51323 10.16281,-58.63928 27.23732,-81.27046 -31.45168,-21.51686 -35.70168,-73.35389 -30.72478,-78.97493 7.13017,-8.05296 52.99399,5.32103 71.20549,28.78237 3.04698,3.92533 5.01993,7.57293 6.13612,10.99203 18.41329,-9.40124 39.23657,-14.70019 61.31705,-14.70019 21.59265,0 42.01399,5.06627 60.12511,14.08217 1.14856,-3.23919 3.05403,-6.6878 5.91543,-10.37401 14.79687,-19.06234 47.86867,-31.47043 63.56842,-31.12204 z" />
    <path
       sodipodi:type="arc"
       style="fill:#e3dedb;stroke:none"
       id="path2897"
       sodipodi:cx="123.79275"
       sodipodi:cy="261.73843"
       sodipodi:rx="74.865143"
       sodipodi:ry="51.875057"
       d="m 198.65789,261.73843 a 74.865143,51.875057 0 1 1 -149.730285,0 74.865143,51.875057 0 1 1 149.730285,0 z"
       transform="matrix(-1.3313551,0,0,1.423756,576.62019,5.1756753)" />
    <path
       id="path4885"
       d="m 412.46866,420.43657 c 21.67849,-1.64968 42.94551,-8.79829 60.58067,-20.36336 8.62546,-5.65652 17.20939,-12.89417 22.45892,-18.93634 l 2.10758,-2.42584 -1.5134,-1.30447 c -0.83236,-0.71746 -2.23446,-1.80279 -3.11583,-2.41178 l -1.60248,-1.10729 -3.39776,3.63085 c -3.81001,4.07136 -10.7182,9.99953 -15.85776,13.60822 -15.77577,11.07673 -33.51093,17.9312 -53.83456,20.80655 -7.14598,1.01103 -26.35364,1.01547 -34.55054,0.008 -34.67676,-4.26193 -62.14189,-18.4283 -76.73887,-39.58166 -6.13559,-8.8915 -9.41231,-18.33704 -9.98687,-28.78864 l -0.25324,-4.60684 -3.97984,-0.11542 -3.97989,-0.1154 0.25505,5.01784 c 1.82729,35.94977 34.11999,65.12032 82.22937,74.27909 12.90932,2.45762 28.51929,3.3698 41.17945,2.4064 l 0,4e-5 z m -28.53669,-81.31766 c 8.49777,-1.23424 14.77637,-5.93385 17.32689,-12.96948 0.77626,-2.14133 1.04491,-2.47014 2.42562,-2.9689 5.33347,-1.9266 7.16599,-2.79937 10.49012,-4.99613 2.04303,-1.3502 3.71528,-2.57796 3.71616,-2.72836 0,-0.15039 -0.40527,-0.39929 -0.90249,-0.5531 -0.49713,-0.15381 -2.50536,-0.99555 -4.46285,-1.87054 -7.3236,-3.27374 -17.38343,-4.15594 -43.26822,-3.79444 -19.94612,0.27856 -43.99804,1.76147 -44.61112,2.75048 -0.54818,0.88444 -0.72111,6.93694 -0.213,7.45491 0.85189,0.86843 15.48424,3.62539 29.12291,5.48718 2.28913,0.31249 4.21112,0.62344 4.27115,0.69101 0.06,0.0676 0.65665,1.20444 1.32582,2.52641 1.95975,3.87152 5.57055,7.47314 9.54654,9.5222 3.00135,1.5468 9.98462,2.21097 15.23247,1.44876 z m 78.55464,-0.34581 c 6.53006,-1.24043 10.69009,-4.9365 12.85403,-11.42046 0.7308,-2.18966 1.04438,-2.64936 1.94319,-2.84876 4.76878,-1.05786 14.61681,-4.25337 18.6485,-6.05107 1.6441,-0.7331 2.31004,-1.25039 2.31004,-1.79435 0,-1.28504 -1.28381,-6.10685 -1.76075,-6.61322 -0.34125,-0.36229 -2.71198,-0.38939 -9.88996,-0.11304 -5.19264,0.1999 -17.48623,0.55107 -27.31908,0.78035 -16.93614,0.39492 -20.54977,0.3221 -31.13564,-0.62743 l -2.81231,-0.25225 3.41494,3.4772 c 4.42221,4.50296 7.85149,7.06093 11.92055,8.89189 l 3.283,1.47724 0.657,2.60789 c 1.45403,5.77174 4.49265,10.02225 8.35943,11.69327 2.32978,1.00679 6.55104,1.35804 9.52706,0.79274 z m 29.59644,-66.00121 c 1.142,-0.0803 2.27948,-0.39001 2.52776,-0.68826 0.27741,-0.33325 0.40606,-1.82792 0.33399,-3.87776 l -0.11728,-3.33551 -1.8079,-0.27052 c -0.99431,-0.14879 -4.33889,-0.57107 -7.43241,-0.93841 -8.60279,-1.02154 -14.52123,-2.10906 -22.88991,-4.20604 -8.92917,-2.23744 -13.89619,-4.01428 -17.80538,-6.36943 -3.04132,-1.83231 -3.25746,-2.15919 -4.33739,-6.5593 -0.39495,-1.60927 -0.87469,-2.70401 -1.18503,-2.70401 -0.96456,0 -6.6105,6.54055 -7.91857,9.17316 -1.6448,3.31045 -1.80259,7.27832 -0.39495,9.93271 2.75882,5.20255 8.60686,7.66594 21.18596,8.92418 7.46832,0.74703 33.68648,1.35192 39.84111,0.91919 z m -177.84244,-7.79076 c 0.77339,-0.52535 2.27236,-2.21103 3.33108,-3.74597 2.49098,-3.61138 4.64238,-5.77555 8.11881,-8.16696 13.83776,-9.51881 37.85935,-14.9222 73.72128,-16.58278 l 10.24462,-0.47439 0.32071,-3.57165 c 0.24792,-2.76032 0.20069,-3.69144 -0.20799,-4.09894 -0.62858,-0.62678 -7.69136,-1.4909 -17.7195,-2.16798 -9.1036,-0.61466 -30.20261,-0.27178 -37.23219,0.60504 -19.2873,2.4058 -32.31705,6.53738 -43.01715,13.64031 -6.63945,4.40735 -13.34004,11.95983 -16.03432,18.07285 -1.10166,2.49969 -1.23758,3.09558 -0.77184,3.38565 0.31079,0.19363 2.82497,1.09805 5.58702,2.00984 3.88524,1.28256 5.84021,1.70219 8.63763,1.85396 3.32369,0.18034 3.72931,0.11903 5.02184,-0.75898 z"
       style="fill:#040401"
       sodipodi:nodetypes="csccccccsssscccccscccsssssssssssssccsssssssccccccsccscccssssssssccsscccssssssssc" />
    <path
       style="fill:#000000;fill-opacity:0.31372549;fill-rule:nonzero;stroke:none"
       id="path3293"
       d="m 269.51392,292.44655 c -1.70722,8.59701 -2.61684,17.47643 -2.61684,26.57658 0,75.11747 60.843,136.08278 135.80992,136.08274 56.22517,0 104.49455,-34.2707 125.12074,-83.10736 -12.44943,62.27697 -67.35082,109.28396 -133.1487,109.28396 -74.96692,-4e-5 -135.80992,-60.96528 -135.80992,-136.08275 0,-18.70701 3.80918,-36.53521 10.6448,-52.75317 z" />
    <path
       style="fill:#f6ffd5;fill-opacity:1;fill-rule:nonzero;stroke:none"
       id="path2393"
       d="m 459.39083,326.08706 a 2.4826508,8.2182323 0 0 0 4.96531,0 2.4826508,8.2182323 0 1 0 -4.96531,0 z" />
    <path
       style="fill:#000000;fill-opacity:1;fill-rule:nonzero;stroke:none"
       id="path2397"
       d="m 397.62225,361.75111 c 0,12.4729 13.65969,22.59585 22.69631,22.59585 9.73496,0 22.69631,-10.12295 22.69631,-22.59585 0,-12.4729 -10.16795,-15.64327 -22.69631,-15.64327 -12.52841,0 -22.69631,3.17037 -22.69631,15.64327 z" />
    <g
       id="g3188"
       transform="matrix(-1.4126316,0,0,1.4126316,837.36382,-385.1939)">
      <path
         style="fill:none;stroke:#000000;stroke-width:4;stroke-linecap:round;stroke-linejoin:miter;stroke-miterlimit:4;stroke-opacity:1;stroke-dasharray:none"
         id="path3182"
         d="m 365.34735,505.66655 c 44.67355,-16.60772 66.50445,3.89308 66.50445,3.89308" />
      <path
         style="fill:none;stroke:#000000;stroke-width:4;stroke-linecap:round;stroke-linejoin:miter;stroke-miterlimit:4;stroke-opacity:1;stroke-dasharray:none"
         id="path3184"
         d="m 358.93972,516.80324 c 31.63347,-8.95824 52.35147,13.88671 52.35147,13.88671" />
      <path
         style="fill:none;stroke:#000000;stroke-width:4;stroke-linecap:round;stroke-linejoin:miter;stroke-miterlimit:4;stroke-opacity:1;stroke-dasharray:none"
         id="path3186"
         d="m 356.30922,528.71442 c 24.33775,-2.57606 33.65692,19.1258 33.65692,19.1258" />
    </g>
    <g
       id="g3193"
       transform="matrix(1.4126316,0,0,1.4126316,70.012123,-263.76165)">
      <path
         style="fill:none;stroke:#000000;stroke-width:4;stroke-linecap:round;stroke-linejoin:miter;stroke-miterlimit:4;stroke-opacity:1;stroke-dasharray:none"
         id="path3195"
         d="m 302.66692,425.07743 c 44.67355,-16.60772 66.50445,3.89308 66.50445,3.89308" />
      <path
         style="fill:none;stroke:#000000;stroke-width:4;stroke-linecap:round;stroke-linejoin:miter;stroke-miterlimit:4;stroke-opacity:1;stroke-dasharray:none"
         id="path3197"
         d="m 296.25929,436.21412 c 31.63347,-8.95824 52.35147,13.88671 52.35147,13.88671" />
      <path
         style="fill:none;stroke:#000000;stroke-width:4;stroke-linecap:round;stroke-linejoin:miter;stroke-miterlimit:4;stroke-opacity:1;stroke-dasharray:none"
         id="path3199"
         d="m 293.62879,448.1253 c 24.33775,-2.57606 33.65692,19.1258 33.65692,19.1258" />
    </g>
    <path
       style="fill:#2b2200;fill-opacity:1;fill-rule:evenodd;stroke:#000000;stroke-width:5.65052652;stroke-linecap:butt;stroke-linejoin:round;stroke-miterlimit:4;stroke-opacity:1;stroke-dasharray:none"
       id="path3231"
       d="m 313.63793,224.95702 c -3.55713,-27.56775 -44.46411,-46.24267 -49.79979,-41.79627 -5.33569,4.44641 6.59611,47.18661 29.34631,57.80334 13.33926,6.22496 20.45348,-8.89282 20.45348,-16.00707 z" />
    <path
       style="fill:#2b2200;fill-opacity:1;fill-rule:evenodd;stroke:#000000;stroke-width:5.65052652;stroke-linecap:butt;stroke-linejoin:round;stroke-miterlimit:4;stroke-opacity:1;stroke-dasharray:none"
       id="path3233"
       d="m 471.55798,224.95702 c 3.55714,-27.56775 44.46414,-46.24267 49.79982,-41.79627 5.33568,4.44641 -6.59611,47.18661 -29.3463,57.80334 -13.33925,6.22496 -20.45348,-8.89282 -20.45352,-16.00707 z" />
    <path
       style="fill:#ac9d93;fill-opacity:1;fill-rule:nonzero;stroke:#000000;stroke-width:5.65052652;stroke-linecap:round;stroke-linejoin:round;stroke-miterlimit:4;stroke-opacity:1"
       id="path3235"
       d="m 274.06488,547.32802 c 0,30.43477 24.7007,29.34634 55.13548,29.34634 30.43482,0 55.1355,1.08843 55.1355,-29.34634 0,-30.43478 -24.70068,-55.13546 -55.1355,-55.13546 -30.43478,0 -55.13548,24.70068 -55.13548,55.13546 z" />
    <path
       style="fill:#e3e2db;fill-opacity:1;fill-rule:nonzero;stroke:#000000;stroke-width:5.65052652;stroke-linecap:round;stroke-linejoin:round;stroke-miterlimit:4;stroke-opacity:1"
       id="path3238"
       d="m 401.2322,547.32802 c 0,30.43477 24.70069,29.34629 55.13551,29.34629 16.92317,0 32.07346,0.33656 42.19001,-4.59709 8.0771,-3.93902 12.94549,-11.2376 12.94549,-24.7492 0,-30.43478 -24.70073,-55.13546 -55.1355,-55.13546 -30.43482,0 -55.13551,24.70068 -55.13551,55.13546 z" />
    <path
       style="fill:#241f1c;fill-opacity:0.31372549;fill-rule:nonzero;stroke:none"
       id="path3327"
       d="m 300.24804,500.41748 c -6.67164,9.15385 -10.63887,20.43701 -10.63887,32.62297 0,17.61041 8.2429,33.27958 21.05704,43.4384 -21.30426,-0.80881 -36.59602,-5.21787 -36.59602,-29.13552 0,-19.82167 10.46286,-37.20824 26.17785,-46.92585 z" />
    <path
       style="fill:#241f1c;fill-opacity:0.31372549;fill-rule:nonzero;stroke:none"
       id="path3332"
       d="m 428.0912,500.41748 c -6.67164,9.15385 -10.63887,20.43701 -10.63887,32.62297 0,17.61041 8.24291,33.27958 21.05705,43.4384 -21.30426,-0.80881 -36.596,-5.21787 -36.596,-29.13552 0,-19.82167 10.46284,-37.20824 26.17782,-46.92585 z" />
    <path
       style="fill:#000000;fill-opacity:0.31372549;fill-rule:nonzero;stroke:none"
       id="path3349"
       d="m 376.97163,519.79701 c 4.67939,8.1011 7.37216,17.52456 7.37216,27.54632 0,24.72827 -16.3197,28.62396 -38.7591,29.22384 22.29104,-9.29233 33.6272,-31.37113 31.38694,-56.77016 z" />
    <g
       id="g2469"
       transform="matrix(1.4126316,0,0,1.4126316,-69.165074,-314.47193)">
      <path
         style="fill:none;stroke:#000000;stroke-width:4;stroke-linecap:round;stroke-linejoin:miter;stroke-miterlimit:4;stroke-opacity:1;stroke-dasharray:none"
         id="path2471"
         d="m 357.34172,628.69417 c -3.5026,-11.33139 0.50038,-24.55134 0.50038,-24.55134" />
      <path
         style="fill:none;stroke:#000000;stroke-width:4;stroke-linecap:round;stroke-linejoin:miter;stroke-miterlimit:4;stroke-opacity:1;stroke-dasharray:none"
         id="path2473"
         d="m 375.36715,631.21226 c 4.29303,-18.25613 -0.61329,-32.73512 -0.61329,-32.73512" />
      <path
         style="fill:none;stroke:#000000;stroke-width:4;stroke-linecap:round;stroke-linejoin:miter;stroke-miterlimit:4;stroke-opacity:1;stroke-dasharray:none"
         id="path2475"
         d="m 393.62142,629.3237 c 8.81331,-13.84948 1.25905,-25.18087 1.25905,-25.18087" />
    </g>
    <g
       id="g2508"
       transform="matrix(-1.4126316,0,0,1.4126316,853.70534,-314.47193)">
      <path
         style="fill:none;stroke:#000000;stroke-width:4;stroke-linecap:round;stroke-linejoin:miter;stroke-miterlimit:4;stroke-opacity:1;stroke-dasharray:none"
         id="path2510"
         d="m 357.34172,628.69417 c -3.5026,-11.33139 0.50038,-24.55134 0.50038,-24.55134" />
      <path
         style="fill:none;stroke:#000000;stroke-width:4;stroke-linecap:round;stroke-linejoin:miter;stroke-miterlimit:4;stroke-opacity:1;stroke-dasharray:none"
         id="path2512"
         d="m 375.36715,631.21226 c 4.29303,-18.25613 -0.61329,-32.73512 -0.61329,-32.73512" />
      <path
         style="fill:none;stroke:#000000;stroke-width:4;stroke-linecap:round;stroke-linejoin:miter;stroke-miterlimit:4;stroke-opacity:1;stroke-dasharray:none"
         id="path2514"
         d="m 393.62142,629.3237 c 8.81331,-13.84948 1.25905,-25.18087 1.25905,-25.18087" />
    </g>
    <path
       style="fill:#f6ffd5;fill-opacity:1;fill-rule:nonzero;stroke:none"
       id="path2393-0"
       d="m 378.21165,325.63287 a 2.4826508,8.2182323 0 0 0 4.9653,0 2.4826508,8.2182323 0 1 0 -4.9653,0 z" />
  </g>
</svg>
